<svg width="64" height="64" viewBox="0 0 64 64" fill="none" xmlns="http://www.w3.org/2000/svg">
<path d="M36.5213 25.6916C38.5751 25.6916 40.24 24.0267 40.24 21.973C40.24 19.9193 38.5751 18.2544 36.5213 18.2544C34.4676 18.2544 32.8027 19.9193 32.8027 21.973C32.8027 24.0267 34.4676 25.6916 36.5213 25.6916Z" fill="white"/>
<path d="M12 6.45703V58.543C12 60.4523 13.5477 62 15.457 62H17.6158V3H15.457C13.5478 3 12 4.54771 12 6.45703Z" fill="white"/>
<path d="M49.3788 3H21.073V62H49.3788C51.2881 62 52.8359 60.4523 52.8359 58.543V6.45703C52.8359 4.54771 51.288 3 49.3788 3ZM38.2498 28.9368V50.2025H28.3756V46.7455H34.7928V42.8582H28.3756V39.4012H34.7928V28.9368C31.6686 28.1611 29.3457 25.3338 29.3457 21.973C29.3457 18.0163 32.5646 14.7973 36.5213 14.7973C40.478 14.7973 43.697 18.0163 43.697 21.973C43.697 25.3338 41.3741 28.1611 38.2498 28.9368Z" fill="white"/>
</svg>
