<svg width="64" height="64" viewBox="0 0 64 64" fill="none" xmlns="http://www.w3.org/2000/svg">
<path d="M36.3123 4V25.0319L45.7866 17.207L51.2783 23.8555L31.9998 39.7817L12.7227 23.8555L18.2172 17.207L27.6873 25.0305V4H36.3123Z" fill="white"/>
<path d="M52.7383 27.8242C54.1875 30.8372 55 34.2143 55 37.7812C55 50.4838 44.7025 60.7812 32 60.7812C19.2975 60.7812 9 50.4838 9 37.7812C9 34.2826 9.78224 30.9669 11.1797 27.998L17.6045 33.5547C17.2115 34.8953 17 36.3135 17 37.7812C17 46.0655 23.7157 52.7812 32 52.7812C40.2843 52.7812 47 46.0655 47 37.7812C47 36.2076 46.757 34.6908 46.3076 33.2656L52.7383 27.8242Z" fill="white"/>
</svg>
